<svg xmlns="http://www.w3.org/2000/svg" width="400" height="800"><g><g transform="translate(200,100)"><line y2="50" stroke-width="6" stroke="#F7AB00"/><circle r="12" fill="#F7AB00"/><circle r="6" fill="white"/><text x="30" y="6" font-size="18px" font-weight="600">周家河</text><text font-size="12px" x="-130" y="-4">首班车 6:00</text><text font-size="12px" x="-130" y="16">末班车 22:00</text></g><g transform="translate(200,160)"><line y2="50" stroke-width="6" stroke="#F7AB00"/><circle r="12" fill="#F7AB00"/><circle r="6" fill="white"/><text x="30" y="6" font-size="18px" font-weight="600">湾湖</text><text font-size="12px" x="-130" y="-4">首班车 6:03</text><text font-size="12px" x="-130" y="16">末班车 22:03</text></g><g transform="translate(200,220)"><line y2="50" stroke-width="6" stroke="#F7AB00"/><circle r="12" fill="#F7AB00"/><circle r="6" fill="white"/><text x="30" y="6" font-size="18px" font-weight="600">协子河</text><text font-size="12px" x="-130" y="-4">首班车 6:05</text><text font-size="12px" x="-130" y="16">末班车 22:05</text></g><g transform="translate(200,280)"><line y2="50" stroke-width="6" stroke="#F7AB00"/><circle r="12" fill="#F7AB00"/><circle r="6" fill="white"/><text x="30" y="6" font-size="18px" font-weight="600">马影河</text><text font-size="12px" x="-130" y="-4">首班车 6:08</text><text font-size="12px" x="-130" y="16">末班车 22:08</text></g><g transform="translate(200,340)"><line y2="50" stroke-width="6" stroke="#F7AB00"/><circle r="12" fill="#F7AB00"/><circle r="6" fill="white"/><text x="30" y="6" font-size="18px" font-weight="600">桂子湖</text><text font-size="12px" x="-130" y="-4">首班车 6:00</text><text font-size="12px" x="-130" y="16">末班车 22:11</text></g><g transform="translate(200,400)"><line y2="50" stroke-width="6" stroke="#F7AB00"/><circle r="12" fill="#F7AB00"/><circle r="6" fill="white"/><text x="30" y="6" font-size="18px" font-weight="600">大军山</text><text font-size="12px" x="-130" y="-4">首班车 6:04</text><text font-size="12px" x="-130" y="16">末班车 22:15</text></g><g transform="translate(200,460)"><line y2="50" stroke-width="6" stroke="#F7AB00"/><circle r="12" fill="#F7AB00"/><circle r="6" fill="white"/><text x="30" y="6" font-size="18px" font-weight="600">枫林</text><text font-size="12px" x="-130" y="-4">首班车 6:07</text><text font-size="12px" x="-130" y="16">末班车 22:18</text></g><g transform="translate(200,520)"><line y2="50" stroke-width="6" stroke="#F7AB00"/><circle r="12" fill="#F7AB00"/><circle r="6" fill="white"/><text x="30" y="6" font-size="18px" font-weight="600">小军山</text><text font-size="12px" x="-130" y="-4">首班车 6:00</text><text font-size="12px" x="-130" y="16">末班车 22:21</text></g><g transform="translate(200,580)"><line y2="50" stroke-width="6" stroke="#F7AB00"/><circle r="12" fill="#F7AB00"/><circle r="6" fill="white"/><text x="30" y="6" font-size="18px" font-weight="600">沌口</text><text font-size="12px" x="-130" y="-4">首班车 6:06</text><text font-size="12px" x="-130" y="16">末班车 22:27</text></g><g transform="translate(200,640)"><line y2="50" stroke-width="6" stroke="#F7AB00"/><circle r="12" fill="#F7AB00"/><circle r="6" fill="white"/><text x="30" y="6" font-size="18px" font-weight="600">南太子湖</text><text font-size="12px" x="-130" y="-4">首班车 6:00</text><text font-size="12px" x="-130" y="16">末班车 22:30</text></g><g transform="translate(200,700)"><line y2="50" stroke-width="6" stroke="#F7AB00"/><circle r="12" fill="#F7AB00"/><circle r="6" fill="white"/><text x="30" y="6" font-size="18px" font-weight="600">老关村</text><text font-size="12px" x="-130" y="-4">首班车 6:03</text><text font-size="12px" x="-130" y="16">末班车 22:33</text></g><g transform="translate(200,760)"><line y2="50" stroke-width="6" stroke="#F7AB00"/><circle r="12" fill="#F7AB00"/><circle r="6" fill="white"/><text x="30" y="6" font-size="18px" font-weight="600">国博中心南</text><text font-size="12px" x="-130" y="-4">首班车 ——</text><text font-size="12px" x="-130" y="16">末班车 22:35（到达）</text></g></g></svg>